<?xml version="1.0" encoding="UTF-8"?><svg id="Layer_2" xmlns="http://www.w3.org/2000/svg" width="200.52" height="200.52" viewBox="0 0 200.52 200.52"><defs><style>.cls-1{fill:#faf7f2;}.cls-2{fill:#3734f5;}</style></defs><g id="Layer_1-2"><rect class="cls-2" width="200.52" height="200.52"/><path class="cls-1" d="m103.66,48.72c-25.65,0-23.96,51.46-23.96,51.46,0,0-2.15,51.61,23.96,51.61,12.29,0,22.58-13.83,28.88-33.03v16.28c-5.53,9.99-13.36,19.51-28.88,19.51-38.25,0-35.64-53.76-35.64-53.76,0,0-2.3-54.84,35.64-54.84,8.76,0,16.74,3.07,23.04,10.29,3.23,2.92,4.15-9.68,4.15-9.68h1.23l.15,42.24h-2.46s-.61-14.44-3.53-23.66c-3.53-10.14-12.9-16.44-22.58-16.44Z"/></g></svg>