<?xml version="1.0" encoding="UTF-8"?><svg id="Layer_2" xmlns="http://www.w3.org/2000/svg" width="360.01" height="453.23" viewBox="0 0 360.01 453.23"><defs><style>.cls-1{fill:#3734f5;}</style></defs><g id="Layer_1-2"><path class="cls-1" d="m317.98,183.67c-8.5-.35-16.4-2.38-20.27-6.62-4.26-4.67-5.58-11.66-7.2-18.1-6.89-27.37-22.29-51.01-39.24-72.06-6.46-8.02-13.36-15.92-21.94-20.77-16.21-9.15-34.46-2.13-46.34,11.97-9.64,11.45-16.71,25.33-26.49,36.65-2.28,2.64-4.72,5.16-6.47,8.27-2.06,3.66-3.05,7.95-3.84,12.2-5.86,31.37-2.68,63.93,1.73,95.6,2.9,20.79,5.34,40.75-.59,61.06-9.44,32.36,5.39,54.55,25.67,76.33,11.66,12.52,24.4,29.2,41.29,31.01,11.43,1.23,22.93-2.78,32.98-9.06,11.34-7.09,21.12-17.01,29.96-27.72,4.65-5.64,9.12-11.6,12.24-18.46,2.71-5.96,4.36-12.47,7-18.47,5.75-13.08,16.67-23.52,29.4-26.07,8.12-1.63,16.9.27,23.89,5.25,19.73,14.09,6.16,61.79-1.14,81.12-4.81,12.73-12.21,24.62-21.94,33.14-11.01,9.64-24.17,9.64-35.16,18.66-26.06,21.38-47.81,12.53-77.72,11.87-14.59-.32-29.06,3.03-43.64,3.66-26.48,1.14-53.75-7.5-76.09-23.61-20.17-14.54-45.38-30.08-61.68-50.04-15.97-19.56-22.3-46.51-28.1-72.3-1.96-8.74-3.94-17.56-4.25-26.57-.35-10.07,1.39-20.07,3.18-29.94,4.22-23.35,8.78-46.82,9.08-70.65.13-10.59-.56-21.36,1.83-31.6,5.52-23.67,23.44-38.8,35.74-57.7,12.17-18.7,12.4-44.29,25.96-62,13.18-17.21,35.61-20.8,55.7-19.19,3.25.26,6.54.62,9.75,0,3.07-.6,5.94-2.09,8.86-3.35C168.84-1.88,189.54-.33,209.48,1.34c11.72.98,23.45,1.96,35.17,2.94,9.24.77,18.53,1.55,27.5,4.18,41.05,12.02,66.19,46.97,77.37,91.24,4.85,19.21,10.11,40.93,6.44,61.04-1.21,6.62-4.16,13.1-9.14,16.84-5.49,4.12-17.68,6.56-28.82,6.1Zm-244.96,102.1c.31-.51.47-.64.46-.77-.02-1.09-.07-2.17-.11-3.26-.7-19.39-.41-38.77.61-58.13.24-4.52.84-9,1.17-13.52.18-2.5.17-5.03.18-7.54,0-.62-.23-1.24-.36-1.91-1.58.25-2.97.66-4.36.64-3.86-.05-7.74-.21-11.26-2.38-.76-.47-1.67-.78-2.17.26-.88,1.85-1.61,3.82-.93,6,1.25,4.03,2.52,8.06,3.8,12.08,3.22,10.13,2.69,20.36.18,30.45-1.24,4.97-3.38,9.66-5.22,14.42-1.26,3.26-1.42,3.32.89,5.85,3.84,4.21,7.78,8.29,11.7,12.4,1.73,1.81,3.54,3.55,5.41,5.41Zm4.52-159.04c.42.32.75.71,1.14.86,1.96.75,3.53,2.09,4.92,3.78.5.61,1.06,1.19,1.66,1.67,2.58,2.02,5.47,1.02,6.62-2.23.77-2.18,1.58-4.34,2.35-6.53,1.68-4.83,3.33-9.68,5.03-14.51,1.07-3.03,2.05-6.12,3.33-9.04,2.28-5.18,4.78-10.23,7.15-15.36,1.05-2.28.82-2.75-1.36-3.09-.37-.06-.74-.05-1.11-.13-2.84-.62-5.72-1.05-8.49-1.94-2.85-.91-2.96-1.11-4.89,1.43-.71.94-1.34,2.04-1.74,3.19-3.2,9.21-6.3,18.46-9.49,27.68-1.62,4.68-3.35,9.3-5.12,14.21Zm-31.11,180.21c.08,1.32.23,2.31.17,3.28-.12,1.92.65,3.31,1.71,4.72,1.88,2.49,3.54,5.19,5.38,7.72,2.7,3.71,5.06,7.64,7.08,11.89,3.56,7.47,6.47,15.15,6.77,23.75.1,2.88,1.08,4.39,3.47,5.59,5.02,2.53,9.82,5.6,14.74,8.38,1.32.74,2.71,1.41,4.14,1.79,4.2,1.12,8.41,2.15,12.34,4.28.78.43,1.79.34,3.03.54-.28-.84-.37-1.23-.54-1.56-2.11-4.15-4.2-8.3-6.37-12.41-.39-.75-1.05-1.39-1.7-1.88-3.15-2.38-6.33-4.7-9.52-7.02-2.79-2.04-5.13-4.62-6.9-7.77-1.69-3.01-3.76-5.37-6.43-7.37-5.16-3.86-9.33-9.09-13.77-13.94-2.57-2.81-4.53-5.97-5.78-9.74-1.35-4.08-4.09-6.95-6.78-9.85-.14-.15-.39-.16-1.04-.4Z"/></g></svg>